<svg width="30" height="31" viewBox="0 0 30 31" fill="none" xmlns="http://www.w3.org/2000/svg">
<g clip-path="url(#clip0_283_68)">
<path d="M19.4996 15.1876C19.4996 16.3811 19.0255 17.5257 18.1816 18.3696C17.3377 19.2135 16.1931 19.6876 14.9996 19.6876C13.8061 19.6876 12.6615 19.2135 11.8176 18.3696C10.9737 17.5257 10.4996 16.3811 10.4996 15.1876C10.4996 14.9311 10.5266 14.6806 10.5731 14.4376H8.99961V20.4331C8.99961 20.8501 9.33711 21.1876 9.75411 21.1876H20.2466C20.4465 21.1872 20.638 21.1075 20.7792 20.9661C20.9203 20.8246 20.9996 20.6329 20.9996 20.4331V14.4376H19.4261C19.4726 14.6806 19.4996 14.9311 19.4996 15.1876V15.1876ZM14.9996 18.1876C15.3937 18.1875 15.7839 18.1098 16.1479 17.9589C16.5119 17.808 16.8427 17.5869 17.1212 17.3082C17.3998 17.0295 17.6208 16.6986 17.7715 16.3345C17.9222 15.9704 17.9997 15.5802 17.9996 15.1861C17.9995 14.792 17.9218 14.4018 17.7709 14.0378C17.62 13.6738 17.3989 13.343 17.1202 13.0645C16.8415 12.7859 16.5106 12.5649 16.1465 12.4142C15.7824 12.2635 15.3922 12.186 14.9981 12.1861C14.2023 12.1863 13.4391 12.5026 12.8765 13.0655C12.3139 13.6284 11.9979 14.3917 11.9981 15.1876C11.9983 15.9834 12.3147 16.7466 12.8775 17.3092C13.4404 17.8718 14.2038 18.1878 14.9996 18.1876V18.1876ZM18.5996 12.0376H20.3981C20.5176 12.0376 20.6322 11.9902 20.7168 11.9059C20.8015 11.8215 20.8492 11.7071 20.8496 11.5876V9.7891C20.8496 9.66935 20.802 9.55451 20.7174 9.46984C20.6327 9.38517 20.5179 9.3376 20.3981 9.3376H18.5996C18.4799 9.3376 18.365 9.38517 18.2804 9.46984C18.1957 9.55451 18.1481 9.66935 18.1481 9.7891V11.5876C18.1496 11.8351 18.3521 12.0376 18.5996 12.0376V12.0376ZM14.9996 0.787598C11.1805 0.787598 7.5178 2.30474 4.81727 5.00526C2.11675 7.70578 0.599609 11.3685 0.599609 15.1876C0.599609 19.0067 2.11675 22.6694 4.81727 25.3699C7.5178 28.0705 11.1805 29.5876 14.9996 29.5876C16.8906 29.5876 18.7632 29.2151 20.5103 28.4915C22.2573 27.7678 23.8448 26.7071 25.182 25.3699C26.5191 24.0328 27.5798 22.4453 28.3035 20.6982C29.0271 18.9512 29.3996 17.0786 29.3996 15.1876C29.3996 13.2966 29.0271 11.424 28.3035 9.67696C27.5798 7.92987 26.5191 6.34242 25.182 5.00526C23.8448 3.6681 22.2573 2.6074 20.5103 1.88373C18.7632 1.16006 16.8906 0.787598 14.9996 0.787598V0.787598ZM22.4996 21.0211C22.4996 21.9376 21.7496 22.6876 20.8331 22.6876H9.16611C8.24961 22.6876 7.49961 21.9376 7.49961 21.0211V9.3541C7.49961 8.4376 8.24961 7.6876 9.16611 7.6876H20.8331C21.7496 7.6876 22.4996 8.4376 22.4996 9.3541V21.0211V21.0211Z" fill="white"/>
</g>
<defs>
<clipPath id="clip0_283_68">
<rect width="30" height="30" fill="white" transform="translate(0 0.1875)"/>
</clipPath>
</defs>
</svg>
