<svg width="30" height="31" viewBox="0 0 30 31" fill="none" xmlns="http://www.w3.org/2000/svg">
<g clip-path="url(#clip0_283_62)">
<path d="M14.9996 0.787598C7.04661 0.787598 0.599609 7.2346 0.599609 15.1876C0.599609 23.1406 7.04661 29.5876 14.9996 29.5876C22.9526 29.5876 29.3996 23.1406 29.3996 15.1876C29.3996 7.2346 22.9526 0.787598 14.9996 0.787598ZM18.4106 10.7386H16.2461C15.9896 10.7386 15.7046 11.0761 15.7046 11.5246V13.0876H18.4121L18.0026 15.3166H15.7046V22.0081H13.1501V15.3166H10.8326V13.0876H13.1501V11.7766C13.1501 9.8956 14.4551 8.3671 16.2461 8.3671H18.4106V10.7386V10.7386Z" fill="white"/>
</g>
<defs>
<clipPath id="clip0_283_62">
<rect width="30" height="30" fill="white" transform="translate(0 0.1875)"/>
</clipPath>
</defs>
</svg>
