<svg width="30" height="31" viewBox="0 0 30 31" fill="none" xmlns="http://www.w3.org/2000/svg">
<g clip-path="url(#clip0_283_66)">
<path d="M15 0.1875C6.71625 0.1875 0 6.90375 0 15.1875C0 23.4712 6.71625 30.1875 15 30.1875C23.2837 30.1875 30 23.4712 30 15.1875C30 6.90375 23.2837 0.1875 15 0.1875ZM9.37 6.94125C10.4225 6.94125 11.1238 7.6425 11.1238 8.5775C11.1238 9.5125 10.4225 10.2137 9.25375 10.2137C8.20125 10.215 7.5 9.5125 7.5 8.5775C7.5 7.6425 8.20125 6.94125 9.37 6.94125ZM11.25 21.4375H7.5V11.4375H11.25V21.4375ZM23.75 21.4375H20.22V15.9725C20.22 14.4613 19.2788 14.1125 18.9263 14.1125C18.5738 14.1125 17.3962 14.345 17.3962 15.9725C17.3962 16.205 17.3962 21.4375 17.3962 21.4375H13.75V11.4375H17.3975V12.8325C17.8675 12.0188 18.8087 11.4375 20.5737 11.4375C22.3387 11.4375 23.75 12.8325 23.75 15.9725V21.4375Z" fill="#F5F5F5"/>
</g>
<defs>
<clipPath id="clip0_283_66">
<rect width="30" height="30" fill="white" transform="translate(0 0.1875)"/>
</clipPath>
</defs>
</svg>
