<svg width="79" height="17" viewBox="0 0 79 17" fill="none" xmlns="http://www.w3.org/2000/svg">
<path d="M12.0566 2.14879H0.356445V5.74685H4.22932V16.6238H8.18373V5.74685H12.0566V2.14879Z" fill="#393939"/>
<path d="M20.9475 5.45736L20.5602 6.32585C19.6633 5.56075 18.5015 5.1265 17.1969 5.1265C13.8336 5.1265 11.4284 7.58724 11.4284 11.0406C11.4284 14.5145 13.8336 16.996 17.1969 16.996C18.4811 16.996 19.6226 16.5824 20.5194 15.838L20.8456 16.6238H23.7808V5.45736H20.9475ZM17.7065 13.6047C16.2797 13.6047 15.2401 12.5087 15.2401 11.0406C15.2401 9.59306 16.2797 8.51778 17.7065 8.51778C19.1334 8.51778 20.1729 9.59306 20.1729 11.0406C20.1729 12.5087 19.1334 13.6047 17.7065 13.6047Z" fill="#393939"/>
<path d="M26.1939 4.07189H29.9444V0.804688H26.1939V4.07189ZM26.1735 16.6238H29.9648V5.45736H26.1735V16.6238Z" fill="#393939"/>
<path d="M36.8694 13.2118L41.0277 6.09839V5.45736H31.9366V8.86931H35.7891L31.5697 16.0654V16.6238H41.0684V13.2118H36.8694Z" fill="#393939"/>
<path d="M48.2192 16.996C51.8068 16.996 54.3955 14.4939 54.3955 11.0406C54.3955 7.58724 51.8068 5.10582 48.2192 5.10582C44.6317 5.10582 42.0634 7.58724 42.0634 11.0406C42.0634 14.4939 44.6317 16.996 48.2192 16.996ZM48.2192 13.5427C46.8535 13.5427 45.8548 12.5294 45.8548 11.0612C45.8548 9.57238 46.8535 8.55913 48.2192 8.55913C49.6053 8.55913 50.6041 9.59306 50.6041 11.0612C50.6041 12.5294 49.6053 13.5427 48.2192 13.5427Z" fill="#393939"/>
<path d="M56.0089 16.6238H59.6984V13.0671H56.0089V16.6238Z" fill="#393939"/>
<path d="M61.9646 4.07189H65.7152V0.804688H61.9646V4.07189ZM61.9442 16.6238H65.7356V5.45736H61.9442V16.6238Z" fill="#393939"/>
<path d="M74.76 5.14718C73.3332 5.14718 72.1102 5.68482 71.2949 6.61535L70.7853 5.45736H68.115V16.6238H71.9064V10.6683C71.9064 9.24153 72.579 8.41438 73.7613 8.41438C74.7193 8.41438 75.2085 9.05542 75.2085 10.3582V16.6238H78.9998V9.82052C78.9998 6.98757 77.308 5.14718 74.76 5.14718Z" fill="#393939"/>
</svg>
