<svg width="30" height="31" viewBox="0 0 30 31" fill="none" xmlns="http://www.w3.org/2000/svg">
<path fill-rule="evenodd" clip-rule="evenodd" d="M15.0005 30.1872C10.9937 30.1872 7.22674 28.6269 4.3935 25.7938C1.56032 22.9608 0 19.1942 0 15.1878C0 11.181 1.56032 7.41413 4.3935 4.58096C7.2267 1.7478 10.9937 0.1875 15.0005 0.1875C19.0069 0.1875 22.7735 1.7478 25.6066 4.58096C28.4397 7.41417 30 11.1811 30 15.1878C30 19.1941 28.4397 22.9608 25.6066 25.7938C22.7735 28.6269 19.0068 30.1872 15.0005 30.1872ZM15.143 6.94385C14.0649 6.94387 13.0189 7.15886 12.034 7.58285C11.0497 8.00611 10.1879 8.58296 9.47259 9.29735C8.75887 10.0111 8.18202 10.8729 7.75808 11.8587C7.33346 12.845 7.11817 13.8933 7.11817 14.9745C7.11817 16.4645 7.50545 17.8586 8.26928 19.1181L6.82027 23.4318L11.2618 22.0044C12.4621 22.6686 13.7699 23.0052 15.1499 23.0052C16.2328 23.0052 17.2808 22.7903 18.2648 22.3662C19.2495 21.9432 20.1116 21.3664 20.8271 20.6517C21.5408 19.938 22.1177 19.0762 22.5416 18.0903C22.9656 17.1034 23.1806 16.0551 23.1806 14.9745C23.1815 13.894 22.9665 12.8457 22.5416 11.8587C22.1184 10.8744 21.5415 10.0126 20.8271 9.29735C20.1132 8.5834 19.2511 8.00656 18.2648 7.58285C17.2808 7.15884 16.2328 6.94385 15.1499 6.94385H15.143ZM15.1499 21.6632C13.8281 21.6632 12.5918 21.2905 11.4751 20.5553L8.89751 21.3752L9.73901 18.8939C8.89104 17.7281 8.461 16.4091 8.461 14.9744C8.461 14.0766 8.63996 13.2039 8.99291 12.3806C9.34721 11.5563 9.82747 10.8378 10.4203 10.2449C11.0148 9.6514 11.7333 9.17115 12.556 8.81754C13.3793 8.4646 14.252 8.28564 15.1499 8.28564C16.0478 8.28564 16.9205 8.4646 17.7437 8.81754C18.5648 9.17048 19.2834 9.65072 19.8794 10.2449C20.4728 10.8383 20.9528 11.5569 21.3059 12.3806C21.6595 13.2032 21.8387 14.0759 21.8387 14.9744C21.8396 15.8709 21.6604 16.7436 21.3059 17.5682C20.9534 18.3904 20.4735 19.109 19.8794 19.7039C19.285 20.2975 18.5664 20.7777 17.7437 21.1313C16.9196 21.4843 16.0469 21.6632 15.1499 21.6632ZM12.4768 11.0442C12.2785 11.0442 12.092 11.1229 11.9224 11.2782C11.4208 11.7521 11.1555 12.3183 11.134 12.9612V13.0467C11.1268 13.6618 11.3812 14.357 11.89 15.1131C12.4282 15.905 12.9587 16.5679 13.4669 17.0832C13.976 17.5995 14.5852 18.0225 15.2777 18.3405C16.218 18.7788 16.899 19.0011 17.3018 19.0011C17.6332 19.0011 17.9987 18.906 18.3881 18.7185C18.7763 18.5302 19.0306 18.2952 19.1441 18.0201C19.2641 17.7164 19.325 17.4442 19.325 17.211C19.325 17.141 19.318 17.0874 19.3043 17.0517C19.2684 16.9879 18.9474 16.798 18.3503 16.4874C17.7539 16.1762 17.4045 16.0185 17.3117 16.0185C17.2195 16.0185 17.0329 16.1923 16.7573 16.5351C16.4809 16.8779 16.2874 17.0517 16.1822 17.0517C16.1111 17.0517 16.0324 17.0262 15.9482 16.9761C15.279 16.6388 14.7378 16.277 14.3399 15.9006C13.8591 15.4485 13.4936 14.9576 13.2535 14.4417C13.2178 14.384 13.2004 14.3316 13.2004 14.2815C13.2004 14.2113 13.3243 14.0451 13.5686 13.7874C13.8122 13.5294 13.9358 13.3232 13.9358 13.1745C13.9348 13.1242 13.8427 12.8479 13.6694 12.3753C13.5046 11.9271 13.3796 11.5943 13.3174 11.4384C13.2608 11.2892 13.2054 11.1905 13.1527 11.145C13.0995 11.099 13.0045 11.0757 12.8701 11.0757C12.8225 11.0757 12.7565 11.0707 12.6685 11.0604C12.5835 11.0496 12.519 11.0442 12.4768 11.0442Z" fill="white"/>
</svg>
