<svg width="30" height="31" viewBox="0 0 30 31" fill="none" xmlns="http://www.w3.org/2000/svg">
<path fill-rule="evenodd" clip-rule="evenodd" d="M15.0009 30.188C8.9331 30.188 3.46354 26.5331 1.14205 20.9276C-1.17944 15.323 0.104015 8.87096 4.39421 4.58098C10.2518 -1.27698 19.749 -1.27698 25.6067 4.58088C31.4644 10.4387 31.4644 19.9362 25.6067 25.7941C22.8002 28.6166 18.9812 30.1988 15.0009 30.188ZM15.0009 9.33398C14.9659 9.33398 11.48 9.33398 9.17708 9.50098L9.07008 9.51198C8.47918 9.53091 7.91904 9.77995 7.50912 10.206C7.15447 10.693 6.92694 11.2608 6.84714 11.858C6.74344 12.7544 6.68769 13.6556 6.68015 14.558V15.821C6.68781 16.7217 6.74356 17.6213 6.84714 18.516C6.92463 19.1112 7.14941 19.6776 7.50112 20.164C7.93532 20.5806 8.50773 20.8227 9.10908 20.844C9.19708 20.854 9.27207 20.864 9.33607 20.875C10.648 21 14.9539 21.041 14.9969 21.042C15.0399 21.043 18.5158 21.035 20.8248 20.868L20.9318 20.857C21.5224 20.8356 22.082 20.587 22.4937 20.163C22.8478 19.6758 23.075 19.108 23.1547 18.511C23.2582 17.6163 23.3139 16.7166 23.3217 15.816V14.555C23.3142 13.6527 23.2585 12.7514 23.1547 11.855V11.848C23.0769 11.2524 22.8491 10.6864 22.4927 10.203C22.0808 9.77982 21.5219 9.53133 20.9318 9.50898L20.8258 9.49798C18.5258 9.33198 15.0369 9.32998 15.0019 9.32998L15.0009 9.33398ZM13.281 17.347V12.67L17.7808 15.017L13.281 17.347Z" fill="#F5F5F5"/>
</svg>
